<svg width="252" height="252" viewBox="0 0 252 252" fill="none" xmlns="http://www.w3.org/2000/svg">
<path d="M49.0385 45.9929L20.8035 20.6761C20.2119 20.1457 19.2768 20.2167 18.7974 20.8605C13.0791 28.4852 14.6309 39.9142 22.608 47.0668C30.5851 54.2194 42.1126 54.5227 49.0732 48.0072C49.6585 47.4584 49.6301 46.5234 49.0385 45.9929Z" fill="#FF6633"/>
<path d="M195.221 218.796L223.456 244.113C224.048 244.643 224.983 244.572 225.462 243.928C231.18 236.304 229.629 224.875 221.651 217.722C213.674 210.569 202.147 210.266 195.186 216.782C194.601 217.33 194.629 218.265 195.221 218.796Z" fill="#FF6633"/>
<path d="M227.079 95.1119L197.715 71.1137C197.099 70.6109 196.168 70.7247 195.719 71.3897C190.356 79.2682 192.429 90.6141 200.725 97.3942C209.021 104.174 220.55 103.95 227.205 97.1224C227.765 96.5474 227.694 95.6147 227.079 95.1119Z" fill="#FF6633"/>
<path d="M36.5971 178.597L63.3057 151.675C63.8653 151.111 63.8415 150.173 63.2227 149.662C55.896 143.567 44.4034 144.54 36.8576 152.146C29.3117 159.753 28.4275 171.25 34.5837 178.53C35.1023 179.143 36.0375 179.161 36.5971 178.597Z" fill="#FF6633"/>
<path d="M30.9157 117.323C25.3479 117.914 19.8727 109.339 18.6865 98.1699C17.5003 87.0007 21.0523 77.4669 26.6201 76.8756C32.188 76.2843 37.6632 84.8594 38.8494 96.0286C40.0356 107.198 36.4836 116.732 30.9157 117.323Z" fill="#FCA21C"/>
<path d="M216.571 136.581C222.139 135.99 227.614 144.565 228.8 155.734C229.987 166.903 226.435 176.437 220.867 177.029C215.299 177.62 209.824 169.045 208.638 157.876C207.451 146.706 211.003 137.173 216.571 136.581Z" fill="#FCA21C"/>
<path d="M155.856 30.9063C159.476 33.509 157.097 43.0123 150.541 52.1326C143.985 61.2529 135.736 66.5364 132.115 63.9337C128.494 61.3311 130.873 51.8278 137.429 42.7075C143.985 33.5872 152.235 28.3037 155.856 30.9063Z" fill="#FCA21C"/>
<path d="M101.977 185.895C97.5446 185.413 94.9367 175.969 96.1526 164.803C97.3686 153.637 101.948 144.977 106.381 145.46C110.814 145.942 113.422 155.385 112.206 166.551C110.99 177.717 106.41 186.378 101.977 185.895Z" fill="#FCA21C"/>
<path fill-rule="evenodd" clip-rule="evenodd" d="M104.33 90.6266C106.185 93.2202 105.584 96.8213 102.989 98.67C97.1436 102.833 89.2776 104.069 81.8275 101.648C74.3772 99.2277 68.7413 93.6034 66.4593 86.8016C65.4457 83.7804 67.0762 80.5139 70.1011 79.5055C73.1261 78.4972 76.4 80.1289 77.4136 83.1501C78.4904 86.3597 81.2998 89.3519 85.3909 90.6811C89.4833 92.0108 93.5147 91.2415 96.2717 89.2779C98.8674 87.4292 102.475 88.0331 104.33 90.6266Z" fill="#70C05B"/>
<path fill-rule="evenodd" clip-rule="evenodd" d="M146.577 161.599C144.722 159.006 145.323 155.404 147.918 153.556C153.763 149.393 161.629 148.157 169.08 150.577C176.53 152.998 182.166 158.622 184.448 165.424C185.461 168.445 183.831 171.712 180.806 172.72C177.781 173.729 174.507 172.097 173.493 169.076C172.417 165.866 169.607 162.874 165.516 161.545C161.424 160.215 157.392 160.984 154.635 162.948C152.04 164.797 148.432 164.193 146.577 161.599Z" fill="#70C05B"/>
<path fill-rule="evenodd" clip-rule="evenodd" d="M204.272 25.2243C203.762 22.0768 205.9 19.1172 209.047 18.6139C216.133 17.4806 223.729 19.8674 229.328 25.3456C234.928 30.8238 237.479 38.3662 236.502 45.4738C236.068 48.6308 233.156 50.8331 229.998 50.3928C226.84 49.9524 224.632 47.0362 225.066 43.8793C225.527 40.5253 224.339 36.5966 221.264 33.5884C218.188 30.5793 214.235 29.4777 210.892 30.0123C207.746 30.5155 204.782 28.3719 204.272 25.2243Z" fill="#70C05B"/>
<path fill-rule="evenodd" clip-rule="evenodd" d="M114.698 226.053C116.953 228.308 116.95 231.959 114.692 234.207C109.608 239.271 102.05 241.779 94.3043 240.61C86.5582 239.442 80.0775 234.817 76.7125 228.481C75.2179 225.666 76.2915 222.177 79.1105 220.687C81.9295 219.197 85.4263 220.27 86.921 223.085C88.5088 226.075 91.7703 228.566 96.0238 229.208C100.279 229.849 104.13 228.43 106.528 226.042C108.786 223.793 112.444 223.798 114.698 226.053Z" fill="#70C05B"/>
<path d="M80.7239 29.9581C79.2208 27.7171 79.819 24.6819 82.06 23.1788L105.797 7.25761C108.038 5.75453 111.073 6.35272 112.577 8.59371L117.271 15.5932C118.774 17.8342 118.176 20.8693 115.935 22.3724L92.1978 38.2936C89.9568 39.7967 86.9217 39.1985 85.4186 36.9575L80.7239 29.9581Z" fill="#1CB9FC"/>
<path d="M134.358 203.491C133.782 200.854 135.453 198.251 138.089 197.675L166.013 191.579C168.65 191.003 171.253 192.674 171.829 195.31L173.627 203.544C174.202 206.18 172.532 208.784 169.895 209.36L141.971 215.456C139.335 216.032 136.731 214.361 136.155 211.725L134.358 203.491Z" fill="#1CB9FC"/>
<path d="M162.496 125.141C160.483 126.938 157.394 126.761 155.598 124.748L136.572 103.418C134.776 101.404 134.952 98.3156 136.966 96.5194L143.255 90.9092C145.269 89.113 148.357 89.2893 150.154 91.303L169.18 112.633C170.976 114.646 170.8 117.735 168.786 119.531L162.496 125.141Z" fill="#1CB9FC"/>
<path d="M29.6586 199.558C32.3181 199.101 34.8441 200.887 35.3007 203.547L40.1364 231.717C40.5929 234.376 38.8071 236.902 36.1476 237.359L27.841 238.785C25.1815 239.241 22.6555 237.456 22.1989 234.796L17.3632 206.626C16.9067 203.966 18.6925 201.44 21.352 200.984L29.6586 199.558Z" fill="#1CB9FC"/>
</svg>
